<?xml version="1.0" encoding="UTF-8" standalone="no"?>
<svg
   xmlns:dc="http://purl.org/dc/elements/1.1/"
   xmlns:cc="http://creativecommons.org/ns#"
   xmlns:rdf="http://www.w3.org/1999/02/22-rdf-syntax-ns#"
   xmlns:svg="http://www.w3.org/2000/svg"
   xmlns="http://www.w3.org/2000/svg"
   xmlns:sodipodi="http://sodipodi.sourceforge.net/DTD/sodipodi-0.dtd"
   xmlns:inkscape="http://www.inkscape.org/namespaces/inkscape"
   version="1.1"
   x="0px"
   y="0px"
   viewBox="0 0 90.599998 90.599998"
   enable-background="new 0 0 100 100"
   xml:space="preserve"
   id="svg2"
   inkscape:version="0.91 r13725"
   sodipodi:docname="thermostat-icon.svg"
   width="90.599998"
   height="90.599998"><metadata
     id="metadata44"><rdf:RDF><cc:Work
         rdf:about=""><dc:format>image/svg+xml</dc:format><dc:type
           rdf:resource="http://purl.org/dc/dcmitype/StillImage" /><dc:title></dc:title></cc:Work></rdf:RDF></metadata><defs
     id="defs42" /><sodipodi:namedview
     pagecolor="#ffffff"
     bordercolor="#666666"
     borderopacity="1"
     objecttolerance="10"
     gridtolerance="10"
     guidetolerance="10"
     inkscape:pageopacity="0"
     inkscape:pageshadow="2"
     inkscape:window-width="1300"
     inkscape:window-height="886"
     id="namedview40"
     showgrid="false"
     inkscape:zoom="1.888"
     inkscape:cx="46.359322"
     inkscape:cy="32.8"
     inkscape:window-x="271"
     inkscape:window-y="46"
     inkscape:window-maximized="0"
     inkscape:current-layer="svg2"
     fit-margin-top="0"
     fit-margin-left="0"
     fit-margin-right="0"
     fit-margin-bottom="0" /><g
     id="g4"
     style="fill:#ffffff"
     transform="translate(-4.7,-4.7)"><path
       d="m 50,80.3 c -1.119,0 -1.9,0.781 -1.9,1.9 0,1.119 0.781,1.9 1.9,1.9 1.119,0 1.9,-0.781 1.9,-1.9 0,-1.119 -0.781,-1.9 -1.9,-1.9 z"
       id="path6"
       style="fill:#ffffff"
       inkscape:connector-curvature="0" /><path
       d="m 54.199,80.3 c -1.118,0 -1.899,0.781 -1.899,1.9 0,1.119 0.781,1.9 1.899,1.9 1.119,0 1.9,-0.781 1.9,-1.9 0,-1.119 -0.781,-1.9 -1.9,-1.9 z"
       id="path8"
       style="fill:#ffffff"
       inkscape:connector-curvature="0" /><path
       d="m 45.8,80.3 c -1.118,0 -1.899,0.781 -1.899,1.9 0,1.119 0.781,1.9 1.899,1.9 1.118,0 1.899,-0.781 1.899,-1.9 0,-1.119 -0.781,-1.9 -1.899,-1.9 z"
       id="path10"
       style="fill:#ffffff"
       inkscape:connector-curvature="0" /><path
       d="m 54.199,76.101 c -1.118,0 -1.899,0.781 -1.899,1.9 0,1.118 0.781,1.899 1.899,1.899 1.119,0 1.9,-0.781 1.9,-1.899 0.001,-1.119 -0.781,-1.9 -1.9,-1.9 z"
       id="path12"
       style="fill:#ffffff"
       inkscape:connector-curvature="0" /><path
       d="m 41.6,76.101 c -1.119,0 -1.9,0.781 -1.9,1.9 0,1.118 0.781,1.899 1.9,1.899 1.119,0 1.9,-0.781 1.9,-1.899 0,-1.119 -0.781,-1.9 -1.9,-1.9 z"
       id="path14"
       style="fill:#ffffff"
       inkscape:connector-curvature="0" /><path
       d="m 45.8,21.801 8.399,0 c 1.119,0 1.9,-0.781 1.9,-1.9 0,-1.118 -0.781,-1.899 -1.9,-1.899 l -8.399,0 c -1.118,0 -1.899,0.781 -1.899,1.899 -0.001,1.119 0.781,1.9 1.899,1.9 z"
       id="path16"
       style="fill:#ffffff"
       inkscape:connector-curvature="0" /><path
       d="m 45.8,76.101 c -1.118,0 -1.899,0.781 -1.899,1.9 0,1.118 0.781,1.899 1.899,1.899 1.118,0 1.899,-0.781 1.899,-1.899 0,-1.119 -0.781,-1.9 -1.899,-1.9 z"
       id="path18"
       style="fill:#ffffff"
       inkscape:connector-curvature="0" /><path
       d="m 50,29.9 c -10.896,0 -20.1,9.205 -20.1,20.101 0,1.118 0.781,1.899 1.9,1.899 1.119,0 1.9,-0.781 1.9,-1.899 0,-8.836 7.464,-16.301 16.3,-16.301 8.987,0 16.3,7.312 16.3,16.301 0,1.118 0.781,1.899 1.899,1.899 1.119,0 1.9,-0.781 1.9,-1.899 C 70.1,38.917 61.083,29.9 50,29.9 Z"
       id="path20"
       style="fill:#ffffff"
       inkscape:connector-curvature="0" /><path
       d="m 50,24.301 c -14.094,0 -25.56,11.466 -25.56,25.56 0,14.094 11.466,25.56 25.56,25.56 14.094,0 25.56,-11.467 25.56,-25.561 C 75.56,35.766 64.094,24.301 50,24.301 Z M 50,71.9 c -12.076,0 -21.9,-9.824 -21.9,-21.899 0,-12.076 9.824,-21.9 21.9,-21.9 12.075,0 21.899,9.824 21.899,21.9 C 71.899,62.076 62.075,71.9 50,71.9 Z"
       id="path22"
       style="fill:#ffffff"
       inkscape:connector-curvature="0" /><path
       d="M 50,4.7 C 25.021,4.7 4.7,25.022 4.7,50.001 4.7,74.979 25.021,95.3 50,95.3 74.979,95.3 95.3,74.979 95.3,50.001 95.3,25.022 74.979,4.7 50,4.7 Z m 0,86.801 c -22.883,0 -41.5,-18.617 -41.5,-41.5 0,-22.883 18.617,-41.5 41.5,-41.5 22.883,0 41.5,18.617 41.5,41.5 0,22.883 -18.617,41.5 -41.5,41.5 z"
       id="path24"
       style="fill:#ffffff"
       inkscape:connector-curvature="0" /><path
       d="m 57.699,37.601 c -1.118,0 -1.899,0.781 -1.899,1.9 0,1.118 0.781,1.899 1.899,1.899 1.119,0 1.9,-0.781 1.9,-1.899 0.001,-1.119 -0.781,-1.9 -1.9,-1.9 z"
       id="path26"
       style="fill:#ffffff"
       inkscape:connector-curvature="0" /><path
       d="m 50,10.301 c -21.891,0 -39.7,17.81 -39.7,39.7 0,21.89 17.809,39.699 39.7,39.699 21.891,0 39.699,-17.809 39.699,-39.699 0,-21.89 -17.808,-39.7 -39.699,-39.7 z M 50,85.9 c -19.795,0 -35.9,-16.104 -35.9,-35.899 0,-19.796 16.104,-35.9 35.9,-35.9 19.795,0 35.899,16.104 35.899,35.9 C 85.899,69.796 69.795,85.9 50,85.9 Z"
       id="path28"
       style="fill:#ffffff"
       inkscape:connector-curvature="0" /><path
       d="m 58.4,76.101 c -1.119,0 -1.9,0.781 -1.9,1.9 0,1.118 0.781,1.899 1.9,1.899 1.118,0 1.899,-0.781 1.899,-1.899 10e-4,-1.119 -0.78,-1.9 -1.899,-1.9 z"
       id="path30"
       style="fill:#ffffff"
       inkscape:connector-curvature="0" /><path
       d="m 45.8,45.3 -2.101,0 c -1.118,0 -1.899,0.781 -1.899,1.9 0,1.119 0.781,1.9 1.899,1.9 l 1.601,0 0,6.5 c 0,1.119 0.781,1.9 1.899,1.9 1.119,0 1.9,-0.781 1.9,-1.9 l 0,-7 C 49.1,46.657 47.743,45.3 45.8,45.3 Z"
       id="path32"
       style="fill:#ffffff"
       inkscape:connector-curvature="0" /><path
       d="m 54.199,45.3 -2.799,0 c -1.119,0 -1.9,0.781 -1.9,1.9 0,1.119 0.781,1.9 1.9,1.9 l 2.299,0 0,0.4 -0.899,0 c -1.943,0 -3.3,1.356 -3.3,3.299 l 0,1.4 c 0,1.943 1.356,3.301 3.3,3.301 l 2.8,0 c 1.119,0 1.9,-0.781 1.9,-1.9 0,-1.119 -0.781,-1.9 -1.9,-1.9 l -2.3,0 0,-0.4 0.899,0 c 1.943,0 3.301,-1.356 3.301,-3.299 l 0,-1.4 C 57.5,46.657 56.143,45.3 54.199,45.3 Z"
       id="path34"
       style="fill:#ffffff"
       inkscape:connector-curvature="0" /></g></svg>